<svg width="125" height="28" viewBox="0 0 125 28" fill="none" xmlns="http://www.w3.org/2000/svg">
<path fill-rule="evenodd" clip-rule="evenodd" d="M8.24033 7.99013L15.8583 10.0985C16.0108 10.1395 16.2068 10.0721 16.2981 9.94597L19.0825 6.11521C19.1728 5.98421 19.1405 5.80521 19.0097 5.71452L15.0663 3.06218C14.9371 2.97564 14.7301 2.98004 14.6027 3.07158L8.19546 7.73747C8.06874 7.83217 8.08979 7.94606 8.24033 7.99013" fill="#D24708"/>
<path fill-rule="evenodd" clip-rule="evenodd" d="M14.6027 3.07158C14.7301 2.98004 14.9371 2.97564 15.0663 3.06218V3.06218L19.0097 5.71452C19.1405 5.80521 19.1728 5.98421 19.0825 6.11521V6.11521L16.2981 9.94597C16.2068 10.0721 16.0108 10.1395 15.8583 10.0985V10.0985L8.24033 7.99013C8.08979 7.94606 8.06874 7.83217 8.19546 7.73747V7.73747L14.6027 3.07158Z" fill="#FF850F"/>
<path fill-rule="evenodd" clip-rule="evenodd" d="M20.665 4.50068L21.0204 12.4202C21.0255 12.5774 21.1519 12.7423 21.299 12.792L25.7938 14.2639C25.9453 14.3089 26.1043 14.222 26.1507 14.0726L27.4468 9.48898C27.4882 9.33949 27.4204 9.14131 27.2937 9.04977L20.8906 4.37932C20.7617 4.28771 20.6604 4.34211 20.665 4.50068" fill="#D24708"/>
<path fill-rule="evenodd" clip-rule="evenodd" d="M20.665 4.50068L21.0204 12.4202C21.0255 12.5774 21.1519 12.7423 21.299 12.792L25.7938 14.2639C25.9453 14.3089 26.1043 14.222 26.1507 14.0726L27.4468 9.48898C27.4882 9.33949 27.4204 9.14131 27.2937 9.04977L20.8906 4.37932C20.7617 4.28771 20.6604 4.34211 20.665 4.50068V4.50068Z" fill="#FF850F"/>
<path fill-rule="evenodd" clip-rule="evenodd" d="M27.8094 15.2723L20.4094 18.0592C20.2635 18.1134 20.1446 18.2848 20.1446 18.4406L20.1387 23.182C20.1422 23.3402 20.272 23.467 20.4304 23.4626L25.1752 23.2826C25.3308 23.2767 25.4961 23.1508 25.5444 23.0023L27.9944 15.4514C28.0408 15.2991 27.9568 15.2186 27.8094 15.2723" fill="#D24708"/>
<path fill-rule="evenodd" clip-rule="evenodd" d="M27.8094 15.2723L20.4094 18.0592C20.2635 18.1134 20.1446 18.2848 20.1446 18.4406L20.1387 23.182C20.1422 23.3402 20.272 23.467 20.4304 23.4626L25.1752 23.2826C25.3308 23.2767 25.4961 23.1508 25.5444 23.0023L27.9944 15.4514C28.0408 15.2991 27.9568 15.2186 27.8094 15.2723V15.2723Z" fill="#FF850F"/>
<path fill-rule="evenodd" clip-rule="evenodd" d="M19.8041 25.4233L14.8767 19.225C14.7804 19.1026 14.58 19.0406 14.4325 19.0888L9.9349 20.5468C9.78498 20.5996 9.7063 20.7623 9.75867 20.9137L11.3938 25.3849C11.449 25.5303 11.6196 25.6495 11.7755 25.6495L19.6927 25.6543C19.8502 25.6517 19.9013 25.5492 19.8041 25.4233" fill="#D24708"/>
<path fill-rule="evenodd" clip-rule="evenodd" d="M19.8041 25.4233L14.8767 19.225C14.7804 19.1026 14.58 19.0406 14.4325 19.0888L9.9349 20.5468C9.78498 20.5996 9.7063 20.7623 9.75867 20.9137L11.3938 25.3849C11.449 25.5303 11.6196 25.6495 11.7755 25.6495L19.6927 25.6543C19.8502 25.6517 19.9013 25.5492 19.8041 25.4233V25.4233Z" fill="#FF850F"/>
<path fill-rule="evenodd" clip-rule="evenodd" d="M7.45985 20.8869L5.01705 13.3314C4.96808 13.1817 5.02835 12.9819 5.14972 12.8866L8.88428 9.94259C9.0103 9.84667 9.18938 9.87209 9.28539 9.99676L12.0582 13.838C12.1492 13.9635 12.1532 14.1728 12.066 14.3027L7.71266 20.9196C7.62362 21.0514 7.51036 21.0357 7.45985 20.8869" fill="#D24708"/>
<path fill-rule="evenodd" clip-rule="evenodd" d="M9.28539 9.99676L12.0582 13.838C12.1492 13.9635 12.1532 14.1728 12.066 14.3027L7.71266 20.9196C7.62362 21.0514 7.51036 21.0357 7.45985 20.8869L5.01705 13.3314C4.96808 13.1817 5.02835 12.9819 5.14972 12.8866L8.88428 9.94259C9.0103 9.84667 9.18938 9.87209 9.28539 9.99676Z" fill="#FF850F"/>
</svg>
